<svg width="21" height="21" viewBox="0 0 21 21" fill="none" xmlns="http://www.w3.org/2000/svg">
<g id="download 1" clip-path="url(#clip0_4_71)">
<g id="Clip path group">
<mask id="mask0_4_71" style="mask-type:luminance" maskUnits="userSpaceOnUse" x="-1" y="0" width="22" height="21">
<g id="clip0_15251_63610">
<path id="Vector" d="M-0.00149536 0.00134277H20.9975V20.9992H-0.00149536V0.00134277Z" fill="white"/>
</g>
</mask>
<g mask="url(#mask0_4_71)">
<g id="Group">
<path id="Vector_2" d="M20.995 10.5002C20.995 16.2987 16.2948 20.9992 10.4968 20.9992C4.6987 20.9992 -0.00149536 16.2987 -0.00149536 10.5003C-0.00149536 4.7018 4.6987 0.00134277 10.4968 0.00134277C16.2948 0.00134277 20.995 4.70167 20.995 10.5002Z" fill="url(#paint0_linear_4_71)"/>
<path id="Vector_3" d="M20.9965 10.499C20.9965 16.2973 16.2963 20.9979 10.4982 20.9979C4.70019 20.9979 0 16.2973 0 10.499C0 4.70059 4.70019 0 10.4982 0C16.2963 0 20.9965 4.70059 20.9965 10.499Z" fill="url(#paint1_radial_4_71)"/>
<path id="Vector_4" d="M10.4995 7.75437C10.0364 6.59346 8.93289 5.77643 7.64507 5.77643C5.76517 5.77643 4.46173 7.51943 4.46173 9.29353C4.46173 12.2753 7.60359 14.5559 9.81883 16.0646C10.2346 16.3477 10.7645 16.3477 11.1803 16.0646C13.3955 14.5559 16.5373 12.2753 16.5373 9.2934C16.5373 7.5193 15.2339 5.77643 13.3539 5.77643C12.0662 5.77643 10.9625 6.59346 10.4995 7.75437Z" fill="white"/>
</g>
</g>
</g>
</g>
<defs>
<linearGradient id="paint0_linear_4_71" x1="3.14798" y1="3.15108" x2="17.8465" y2="17.8492" gradientUnits="userSpaceOnUse">
<stop stop-color="#FF74AE"/>
<stop offset="0.5001" stop-color="#FA2E3E"/>
<stop offset="1" stop-color="#FF5758"/>
</linearGradient>
<radialGradient id="paint1_radial_4_71" cx="0" cy="0" r="1" gradientUnits="userSpaceOnUse" gradientTransform="translate(10.4982 10.499) rotate(90) scale(10.499 10.4982)">
<stop offset="0.5637" stop-color="#E11731" stop-opacity="0"/>
<stop offset="1" stop-color="#E11731" stop-opacity="0.1"/>
</radialGradient>
<clipPath id="clip0_4_71">
<rect width="21" height="21" fill="white"/>
</clipPath>
</defs>
</svg>
